<svg xmlns="http://www.w3.org/2000/svg" viewBox="0 0 1282.32 759.44"><defs><style>.cls-1{opacity:0.06;}.cls-2{fill:#fff;fill-rule:evenodd;}</style></defs><title>Fichier 2</title><g id="Calque_2" data-name="Calque 2"><g id="Calque_2-2" data-name="Calque 2"><g class="cls-1"><path class="cls-2" d="M509.31,759.44c-34.06-34.38-65.27-63.39-93.23-95.27-11.9-13.57-19.72-32.37-24.5-50.11-6.38-23.66-7.62-48.67-11.75-73-3.08-18.09-11.47-20.92-24.76-9.2-34.3,30.25-77.05,34.67-117.14,12.49-12-6.62-24-13.58-36.77-18.24-31.55-11.51-42.3-3.91-51.79,28.64-10.89,37.39-23.4,74.39-37.21,110.8-15.67,41.34-49.79,60.56-91.09,68.56-6.78,1.31-18.09.51-21.07-3.7l8.26-30.09,41.23-39.16,8.25-6.86s31.92-45.2,32.1-66.58,15.61-73.17,18.92-111.56c4.11-47.62,23.7-63.87,70.55-51.23,13.91,3.75,27.58,8.37,41.48,12.17,12.94,3.55,21.39-.48,23.55-14.8,4.21-28,13.52-55.09-7.22-82.57-12.64-16.73-3.26-41,17.52-57.87,43.05-34.92,91.56-58,147.48-62.78,23.91-2,48.18-4.87,71.93-2.95,68.25,5.51,130.52-11.45,189.43-44.51,44.44-24.94,91.44-37.15,142.55-26.53,20.15,4.19,40.21,8.87,60.36,13,7.93,1.64,16,2.48,30.24,4.63-18.4-20.15-33.35-35.68-47.33-52q-20-23.46-38.15-48.45c-3.82-5.26-5.95-12.61-6.36-19.15-.27-4.35,3.88-9,6.05-13.48,3.67,2.51,8.55,4.24,10.81,7.69,9.19,14,17.57,28.52,26.25,42.85l8.38-1.54c1-19.11,2-38.23,3.3-63.4,19.89,20.9,19.28,50.23,47.79,62,1.1-15.81,2-28.84,3.2-46.06l63.81,49.42c3-21,5.16-36.42,7.35-51.83l4.74-2.63c6.42,9.5,12.09,19.66,19.52,28.3,5.39,6.26,13.12,10.51,19.8,15.65,3.18-7.13,8.07-14,9.21-21.44,2.32-15.31,2.65-30.93,4-48.68,25.84,6.87,16.11,32.34,28.21,45.83l26.65-21.38,8.67,19.09c8.75-12,15.88-22.69,24.13-32.45,3-3.57,8.71-4.86,13.18-7.19,2.09,4.67,6.18,9.5,5.84,14-.64,8.69-4.18,17.14-5.7,25.83-.71,4.08.48,8.47.8,12.72,3.78-.66,8.14-.33,11.22-2.16,12.06-7.12,23.72-14.92,35.52-22.48l6,4.73c-6.34,14.08-12.67,28.16-21,46.77,38.23-5,56.53-37.57,85.15-50.65l4.15,3.72c-2.44,4.88-4.43,10-7.39,14.55-23.48,35.85-57.07,60.84-91.37,85.13-6.84,4.85-12.66,11.15-18.94,16.76q.78,3.31,1.57,6.61c17.88,2.23,35.72,4.94,53.66,6.58,30.6,2.81,54.85,17.21,73.82,40.44,15.73,19.27,11.18,34.31-11.66,43.63-3.08,1.26-7.14,2.76-8.44,5.32-14.53,28.66-39.73,22.67-61.16,15.39-35.42-12-59.84-2.38-80.57,27.22-35.72,51-85.47,78-147.72,81.9-6.14.39-12.24,1.74-18.32,2.85-40.62,7.4-45.43,15-43.23,56.4.68,13-3.19,27.3-8.75,39.25-14.62,31.35-11.68,57.6,14.43,81.92,12.37,11.53,22,26.24,31.71,40.35q48.92,71.4,96.68,143.56c7.22,11,15,15.13,28.37,15.07m-487.55.13,11.68-7.16c4.81-1.93,10.26-3,14.32-5.93q20.79-15.09,40.75-31.3c24.76-20.09,41.39-44.47,46.2-77.3,4.05-27.69,12-54.83,18.53-82.12,1.91-8,4.2-16,7.68-23.34,16.23-34.38,45.68-36.53,68.61-6.1,28.75,38.18,57.66,76.25,87.67,113.42,31.38,38.87,64.15,76.61,99.49,118.64l2.37,1.19M554.52,725.59c40.88-50,100.29-85.27,89-164.75-7.51-53-2.91-53.78-56.88-42-31.88,7-63.55,11.67-95.15-1.24-24.2-9.89-26-7.81-27.19,19.41C460.86,614.11,496.71,672.36,554.52,725.59Z"/></g></g></g></svg>